<?xml version="1.0" standalone="no"?>
<!DOCTYPE svg PUBLIC "-//W3C//DTD SVG 20010904//EN"
 "http://www.w3.org/TR/2001/REC-SVG-20010904/DTD/svg10.dtd">
<svg version="1.0" xmlns="http://www.w3.org/2000/svg"
 width="196.000000pt" height="229.000000pt" viewBox="0 0 196.000000 229.000000"
 preserveAspectRatio="xMidYMid meet">

<g transform="translate(0.000000,229.000000) scale(0.100000,-0.100000)"
fill="#000000" stroke="none">
<path d="M956 1931 c-3 -5 3 -11 15 -14 16 -4 18 -3 8 9 -13 16 -16 17 -23 5z"/>
<path d="M1025 1916 c3 -9 8 -24 12 -33 3 -10 7 -21 7 -25 2 -13 20 -4 22 10
1 6 -2 10 -7 6 -5 -3 -9 4 -9 14 0 11 -7 25 -15 32 -13 11 -15 10 -10 -4z"/>
<path d="M725 1900 c3 -5 8 -10 11 -10 2 0 4 5 4 10 0 6 -5 10 -11 10 -5 0 -7
-4 -4 -10z"/>
<path d="M1000 1901 c0 -5 5 -13 10 -16 6 -3 10 -2 10 4 0 5 -4 13 -10 16 -5
3 -10 2 -10 -4z"/>
<path d="M940 1885 c-7 -8 -8 -15 -2 -15 5 0 15 7 22 15 7 8 8 15 2 15 -5 0
-15 -7 -22 -15z"/>
<path d="M687 1876 c-16 -13 -15 -14 10 -17 15 -3 62 -2 103 2 42 3 57 6 35 7
-23 1 -46 7 -52 13 -6 6 -17 8 -24 3 -19 -11 -60 -14 -54 -3 8 12 3 11 -18 -5z"/>
<path d="M1180 1880 c0 -5 -8 -10 -17 -10 -14 0 -15 -2 -5 -9 23 -14 55 -7 58
12 2 15 0 16 -14 5 -12 -10 -14 -10 -8 0 4 6 2 12 -3 12 -6 0 -11 -4 -11 -10z"/>
<path d="M1240 1880 c-9 -6 -10 -10 -3 -10 6 0 15 5 18 10 8 12 4 12 -15 0z"/>
<path d="M900 1872 c0 -19 -50 -30 -142 -28 -77 1 -94 -2 -86 -12 6 -7 8 -15
4 -19 -3 -3 -6 -1 -6 5 0 7 -6 12 -13 12 -19 0 -57 -34 -57 -50 0 -7 -3 -10
-6 -7 -6 6 -434 -411 -434 -422 0 -3 85 -92 188 -198 l189 -192 69 70 69 69
-118 118 c-64 64 -117 124 -117 132 0 8 101 116 225 240 183 183 224 228 218
245 -5 17 -4 18 10 7 10 -9 17 -10 22 -2 3 5 0 10 -7 10 -10 0 -10 2 1 9 9 6
10 11 2 15 -6 4 -11 3 -11 -2z m-25 -52 c3 -5 1 -10 -4 -10 -6 0 -11 5 -11 10
0 6 2 10 4 10 3 0 8 -4 11 -10z m-220 -10 c3 -5 1 -10 -4 -10 -6 0 -11 5 -11
10 0 6 2 10 4 10 3 0 8 -4 11 -10z"/>
<path d="M1078 1858 c-5 -28 27 -78 49 -78 9 0 13 -3 9 -7 -3 -4 17 -31 46
-60 l52 -53 63 62 c35 34 63 68 63 76 0 7 -4 10 -10 7 -5 -3 -10 1 -10 9 0 9
-6 16 -13 16 -8 0 -19 10 -26 23 -6 12 -9 14 -7 5 4 -14 -6 -17 -79 -20 -76
-3 -85 -1 -94 17 -5 11 -10 14 -10 8 -1 -7 -5 -13 -11 -13 -5 0 -7 7 -4 15 4
8 1 15 -4 15 -6 0 -12 -10 -14 -22z m38 -45 c-7 -7 -26 7 -26 19 0 6 6 6 15
-2 9 -7 13 -15 11 -17z"/>
<path d="M1424 1727 c3 -10 2 -16 -4 -12 -10 6 -57 -35 -52 -47 1 -5 -2 -7 -6
-5 -5 1 -231 -218 -502 -486 l-494 -488 310 -310 309 -309 310 310 310 310
-85 85 -85 85 -69 -69 c-61 -61 -68 -72 -56 -86 12 -14 -6 -36 -156 -186
l-169 -169 -170 170 -170 170 385 385 c212 212 390 385 395 385 6 0 35 -25 65
-55 l55 -55 -275 -275 c-151 -151 -279 -275 -284 -275 -6 0 -24 13 -41 30
l-31 30 -69 -70 -70 -70 100 -100 c55 -55 104 -100 110 -100 6 0 196 186 423
413 l412 412 -201 200 c-111 110 -199 192 -195 182z"/>
</g>
</svg>
